<mxfile host="app.diagrams.net" modified="2022-01-22T20:52:46.424Z" agent="5.0 (Windows NT 10.0; Win64; x64) AppleWebKit/537.36 (KHTML, like Gecko) Chrome/97.0.4692.99 Safari/537.36" etag="G59FLHZRg27nGgzZiRt2" version="16.4.5" type="github">
  <diagram id="C3oF8yMoqa-ng92LlZHd" name="Page-1">
    <mxGraphModel dx="868" dy="450" grid="1" gridSize="10" guides="1" tooltips="1" connect="1" arrows="1" fold="1" page="1" pageScale="1" pageWidth="827" pageHeight="1169" math="0" shadow="0">
      <root>
        <mxCell id="0" />
        <mxCell id="1" parent="0" />
        <mxCell id="kt42e46tLxHBv45678kQ-1" value="4" style="whiteSpace=wrap;html=1;aspect=fixed;fillColor=#008a00;fontColor=#ffffff;strokeColor=#005700;" vertex="1" parent="1">
          <mxGeometry x="360" y="260" width="40" height="40" as="geometry" />
        </mxCell>
        <mxCell id="kt42e46tLxHBv45678kQ-2" value="3" style="whiteSpace=wrap;html=1;aspect=fixed;fillColor=#e51400;fontColor=#ffffff;strokeColor=#B20000;" vertex="1" parent="1">
          <mxGeometry x="400" y="260" width="40" height="40" as="geometry" />
        </mxCell>
        <mxCell id="kt42e46tLxHBv45678kQ-3" value="2" style="whiteSpace=wrap;html=1;aspect=fixed;fillColor=#e51400;fontColor=#ffffff;strokeColor=#B20000;" vertex="1" parent="1">
          <mxGeometry x="440" y="260" width="40" height="40" as="geometry" />
        </mxCell>
        <mxCell id="kt42e46tLxHBv45678kQ-4" value="1" style="whiteSpace=wrap;html=1;aspect=fixed;fillColor=#e51400;fontColor=#ffffff;strokeColor=#B20000;" vertex="1" parent="1">
          <mxGeometry x="480" y="260" width="40" height="40" as="geometry" />
        </mxCell>
        <mxCell id="kt42e46tLxHBv45678kQ-5" value="6" style="whiteSpace=wrap;html=1;aspect=fixed;fillColor=#e51400;fontColor=#ffffff;strokeColor=#B20000;" vertex="1" parent="1">
          <mxGeometry x="520" y="260" width="40" height="40" as="geometry" />
        </mxCell>
        <mxCell id="kt42e46tLxHBv45678kQ-6" value="7" style="whiteSpace=wrap;html=1;aspect=fixed;fillColor=#e51400;fontColor=#ffffff;strokeColor=#B20000;" vertex="1" parent="1">
          <mxGeometry x="560" y="260" width="40" height="40" as="geometry" />
        </mxCell>
        <mxCell id="kt42e46tLxHBv45678kQ-8" value="" style="whiteSpace=wrap;html=1;aspect=fixed;fillColor=#e51400;fontColor=#ffffff;strokeColor=#B20000;" vertex="1" parent="1">
          <mxGeometry x="470" y="110" width="40" height="40" as="geometry" />
        </mxCell>
        <mxCell id="kt42e46tLxHBv45678kQ-9" value="Whole red part is representing unsorted segment" style="text;html=1;align=center;verticalAlign=middle;resizable=0;points=[];autosize=1;strokeColor=none;fillColor=none;" vertex="1" parent="1">
          <mxGeometry x="510" y="110" width="280" height="20" as="geometry" />
        </mxCell>
        <mxCell id="kt42e46tLxHBv45678kQ-10" value="" style="whiteSpace=wrap;html=1;aspect=fixed;fillColor=#008a00;fontColor=#ffffff;strokeColor=#005700;" vertex="1" parent="1">
          <mxGeometry x="470" y="170" width="40" height="40" as="geometry" />
        </mxCell>
        <mxCell id="kt42e46tLxHBv45678kQ-11" value="Whole green part representing sorted sengement" style="text;html=1;align=center;verticalAlign=middle;resizable=0;points=[];autosize=1;strokeColor=none;fillColor=none;" vertex="1" parent="1">
          <mxGeometry x="510" y="170" width="280" height="20" as="geometry" />
        </mxCell>
        <mxCell id="kt42e46tLxHBv45678kQ-12" value="i=0&lt;br&gt;j=i-1=-1&lt;br&gt;key=4" style="text;html=1;align=left;verticalAlign=middle;resizable=0;points=[];autosize=1;strokeColor=none;fillColor=none;fontStyle=1" vertex="1" parent="1">
          <mxGeometry x="360" y="210" width="60" height="50" as="geometry" />
        </mxCell>
        <mxCell id="kt42e46tLxHBv45678kQ-15" value="3" style="whiteSpace=wrap;html=1;aspect=fixed;fillColor=#008a00;fontColor=#ffffff;strokeColor=#005700;" vertex="1" parent="1">
          <mxGeometry x="670" y="260" width="40" height="40" as="geometry" />
        </mxCell>
        <mxCell id="kt42e46tLxHBv45678kQ-16" value="4" style="whiteSpace=wrap;html=1;aspect=fixed;fillColor=#008a00;fontColor=#ffffff;strokeColor=#005700;" vertex="1" parent="1">
          <mxGeometry x="710" y="260" width="40" height="40" as="geometry" />
        </mxCell>
        <mxCell id="kt42e46tLxHBv45678kQ-17" value="2" style="whiteSpace=wrap;html=1;aspect=fixed;fillColor=#e51400;fontColor=#ffffff;strokeColor=#B20000;" vertex="1" parent="1">
          <mxGeometry x="750" y="260" width="40" height="40" as="geometry" />
        </mxCell>
        <mxCell id="kt42e46tLxHBv45678kQ-18" value="1" style="whiteSpace=wrap;html=1;aspect=fixed;fillColor=#e51400;fontColor=#ffffff;strokeColor=#B20000;" vertex="1" parent="1">
          <mxGeometry x="790" y="260" width="40" height="40" as="geometry" />
        </mxCell>
        <mxCell id="kt42e46tLxHBv45678kQ-19" value="6" style="whiteSpace=wrap;html=1;aspect=fixed;fillColor=#e51400;fontColor=#ffffff;strokeColor=#B20000;" vertex="1" parent="1">
          <mxGeometry x="830" y="260" width="40" height="40" as="geometry" />
        </mxCell>
        <mxCell id="kt42e46tLxHBv45678kQ-20" value="7" style="whiteSpace=wrap;html=1;aspect=fixed;fillColor=#e51400;fontColor=#ffffff;strokeColor=#B20000;" vertex="1" parent="1">
          <mxGeometry x="870" y="260" width="40" height="40" as="geometry" />
        </mxCell>
        <mxCell id="kt42e46tLxHBv45678kQ-21" value="i=1&lt;br&gt;j=i-1=0&lt;br&gt;key=3" style="text;html=1;align=left;verticalAlign=middle;resizable=0;points=[];autosize=1;strokeColor=none;fillColor=none;fontStyle=1" vertex="1" parent="1">
          <mxGeometry x="670" y="210" width="50" height="50" as="geometry" />
        </mxCell>
        <mxCell id="kt42e46tLxHBv45678kQ-23" value="As arr[j]&amp;gt;key and j&amp;gt;=0, we will shift 4 one step right and &lt;br&gt;decrement j by 1. As j&amp;lt;0 now, loop will stop and we assign &lt;br&gt;arr[j+1]=arr[0]=key." style="text;html=1;align=left;verticalAlign=middle;resizable=0;points=[];autosize=1;strokeColor=none;fillColor=none;" vertex="1" parent="1">
          <mxGeometry x="670" y="310" width="320" height="50" as="geometry" />
        </mxCell>
        <mxCell id="kt42e46tLxHBv45678kQ-31" value="2" style="whiteSpace=wrap;html=1;aspect=fixed;fillColor=#008a00;fontColor=#ffffff;strokeColor=#005700;" vertex="1" parent="1">
          <mxGeometry x="360" y="430" width="40" height="40" as="geometry" />
        </mxCell>
        <mxCell id="kt42e46tLxHBv45678kQ-32" value="3" style="whiteSpace=wrap;html=1;aspect=fixed;fillColor=#008a00;fontColor=#ffffff;strokeColor=#005700;" vertex="1" parent="1">
          <mxGeometry x="400" y="430" width="40" height="40" as="geometry" />
        </mxCell>
        <mxCell id="kt42e46tLxHBv45678kQ-33" value="4" style="whiteSpace=wrap;html=1;aspect=fixed;fillColor=#008a00;fontColor=#ffffff;strokeColor=#005700;" vertex="1" parent="1">
          <mxGeometry x="440" y="430" width="40" height="40" as="geometry" />
        </mxCell>
        <mxCell id="kt42e46tLxHBv45678kQ-34" value="1" style="whiteSpace=wrap;html=1;aspect=fixed;fillColor=#e51400;fontColor=#ffffff;strokeColor=#B20000;" vertex="1" parent="1">
          <mxGeometry x="480" y="430" width="40" height="40" as="geometry" />
        </mxCell>
        <mxCell id="kt42e46tLxHBv45678kQ-35" value="6" style="whiteSpace=wrap;html=1;aspect=fixed;fillColor=#e51400;fontColor=#ffffff;strokeColor=#B20000;" vertex="1" parent="1">
          <mxGeometry x="520" y="430" width="40" height="40" as="geometry" />
        </mxCell>
        <mxCell id="kt42e46tLxHBv45678kQ-36" value="7" style="whiteSpace=wrap;html=1;aspect=fixed;fillColor=#e51400;fontColor=#ffffff;strokeColor=#B20000;" vertex="1" parent="1">
          <mxGeometry x="560" y="430" width="40" height="40" as="geometry" />
        </mxCell>
        <mxCell id="kt42e46tLxHBv45678kQ-37" value="i=2&lt;br&gt;j=i-1=1&lt;br&gt;key=2" style="text;html=1;align=left;verticalAlign=middle;resizable=0;points=[];autosize=1;strokeColor=none;fillColor=none;fontStyle=1" vertex="1" parent="1">
          <mxGeometry x="360" y="380" width="50" height="50" as="geometry" />
        </mxCell>
        <mxCell id="kt42e46tLxHBv45678kQ-38" value="As arr[j]&amp;gt;key and j&amp;gt;=0, we will shift 4 one step right&lt;br&gt;and decrement j by 1. We will also shift 3 to the right&lt;br&gt;and decrement j by one" style="text;html=1;align=left;verticalAlign=middle;resizable=0;points=[];autosize=1;strokeColor=none;fillColor=none;" vertex="1" parent="1">
          <mxGeometry x="360" y="480" width="290" height="50" as="geometry" />
        </mxCell>
        <mxCell id="kt42e46tLxHBv45678kQ-39" value="1" style="whiteSpace=wrap;html=1;aspect=fixed;fillColor=#008a00;fontColor=#ffffff;strokeColor=#005700;" vertex="1" parent="1">
          <mxGeometry x="670" y="430" width="40" height="40" as="geometry" />
        </mxCell>
        <mxCell id="kt42e46tLxHBv45678kQ-40" value="2" style="whiteSpace=wrap;html=1;aspect=fixed;fillColor=#008a00;fontColor=#ffffff;strokeColor=#005700;" vertex="1" parent="1">
          <mxGeometry x="710" y="430" width="40" height="40" as="geometry" />
        </mxCell>
        <mxCell id="kt42e46tLxHBv45678kQ-41" value="3" style="whiteSpace=wrap;html=1;aspect=fixed;fillColor=#008a00;fontColor=#ffffff;strokeColor=#005700;" vertex="1" parent="1">
          <mxGeometry x="750" y="430" width="40" height="40" as="geometry" />
        </mxCell>
        <mxCell id="kt42e46tLxHBv45678kQ-42" value="4" style="whiteSpace=wrap;html=1;aspect=fixed;fillColor=#008a00;fontColor=#ffffff;strokeColor=#005700;" vertex="1" parent="1">
          <mxGeometry x="790" y="430" width="40" height="40" as="geometry" />
        </mxCell>
        <mxCell id="kt42e46tLxHBv45678kQ-43" value="6" style="whiteSpace=wrap;html=1;aspect=fixed;fillColor=#e51400;fontColor=#ffffff;strokeColor=#B20000;" vertex="1" parent="1">
          <mxGeometry x="830" y="430" width="40" height="40" as="geometry" />
        </mxCell>
        <mxCell id="kt42e46tLxHBv45678kQ-44" value="7" style="whiteSpace=wrap;html=1;aspect=fixed;fillColor=#e51400;fontColor=#ffffff;strokeColor=#B20000;" vertex="1" parent="1">
          <mxGeometry x="870" y="430" width="40" height="40" as="geometry" />
        </mxCell>
        <mxCell id="kt42e46tLxHBv45678kQ-45" value="i=3&lt;br&gt;j=i-1=2&lt;br&gt;key=1" style="text;html=1;align=left;verticalAlign=middle;resizable=0;points=[];autosize=1;strokeColor=none;fillColor=none;fontStyle=1" vertex="1" parent="1">
          <mxGeometry x="670" y="380" width="50" height="50" as="geometry" />
        </mxCell>
        <mxCell id="kt42e46tLxHBv45678kQ-46" value="As arr[j]&amp;gt;key and j&amp;gt;=0, we will shift 4 one step right&lt;br&gt;and decrement j by 1. We will also shift 3 and 2 to the&lt;br&gt;right as 3&amp;gt;key and 2&amp;gt;key. j will also be decreased by two &lt;br&gt;in total." style="text;html=1;align=left;verticalAlign=middle;resizable=0;points=[];autosize=1;strokeColor=none;fillColor=none;" vertex="1" parent="1">
          <mxGeometry x="670" y="475" width="320" height="60" as="geometry" />
        </mxCell>
        <mxCell id="kt42e46tLxHBv45678kQ-47" value="1" style="whiteSpace=wrap;html=1;aspect=fixed;fillColor=#008a00;fontColor=#ffffff;strokeColor=#005700;" vertex="1" parent="1">
          <mxGeometry x="360" y="610" width="40" height="40" as="geometry" />
        </mxCell>
        <mxCell id="kt42e46tLxHBv45678kQ-48" value="2" style="whiteSpace=wrap;html=1;aspect=fixed;fillColor=#008a00;fontColor=#ffffff;strokeColor=#005700;" vertex="1" parent="1">
          <mxGeometry x="400" y="610" width="40" height="40" as="geometry" />
        </mxCell>
        <mxCell id="kt42e46tLxHBv45678kQ-49" value="3" style="whiteSpace=wrap;html=1;aspect=fixed;fillColor=#008a00;fontColor=#ffffff;strokeColor=#005700;" vertex="1" parent="1">
          <mxGeometry x="440" y="610" width="40" height="40" as="geometry" />
        </mxCell>
        <mxCell id="kt42e46tLxHBv45678kQ-50" value="4" style="whiteSpace=wrap;html=1;aspect=fixed;fillColor=#008a00;fontColor=#ffffff;strokeColor=#005700;" vertex="1" parent="1">
          <mxGeometry x="480" y="610" width="40" height="40" as="geometry" />
        </mxCell>
        <mxCell id="kt42e46tLxHBv45678kQ-51" value="6" style="whiteSpace=wrap;html=1;aspect=fixed;fillColor=#008a00;fontColor=#ffffff;strokeColor=#005700;" vertex="1" parent="1">
          <mxGeometry x="520" y="610" width="40" height="40" as="geometry" />
        </mxCell>
        <mxCell id="kt42e46tLxHBv45678kQ-52" value="7" style="whiteSpace=wrap;html=1;aspect=fixed;fillColor=#e51400;fontColor=#ffffff;strokeColor=#B20000;" vertex="1" parent="1">
          <mxGeometry x="560" y="610" width="40" height="40" as="geometry" />
        </mxCell>
        <mxCell id="kt42e46tLxHBv45678kQ-53" value="i=4&lt;br&gt;j=i-1=3&lt;br&gt;key=6" style="text;html=1;align=left;verticalAlign=middle;resizable=0;points=[];autosize=1;strokeColor=none;fillColor=none;fontStyle=1" vertex="1" parent="1">
          <mxGeometry x="360" y="560" width="50" height="50" as="geometry" />
        </mxCell>
        <mxCell id="kt42e46tLxHBv45678kQ-54" value="As arr[j]&amp;lt;key we do nothing. arr[j+1]=arr[4]=key, means&lt;br&gt;6 will remain in its place." style="text;html=1;align=left;verticalAlign=middle;resizable=0;points=[];autosize=1;strokeColor=none;fillColor=none;" vertex="1" parent="1">
          <mxGeometry x="360" y="670" width="310" height="30" as="geometry" />
        </mxCell>
        <mxCell id="kt42e46tLxHBv45678kQ-55" value="1" style="whiteSpace=wrap;html=1;aspect=fixed;fillColor=#008a00;fontColor=#ffffff;strokeColor=#005700;" vertex="1" parent="1">
          <mxGeometry x="670" y="620" width="40" height="40" as="geometry" />
        </mxCell>
        <mxCell id="kt42e46tLxHBv45678kQ-56" value="2" style="whiteSpace=wrap;html=1;aspect=fixed;fillColor=#008a00;fontColor=#ffffff;strokeColor=#005700;" vertex="1" parent="1">
          <mxGeometry x="710" y="620" width="40" height="40" as="geometry" />
        </mxCell>
        <mxCell id="kt42e46tLxHBv45678kQ-57" value="3" style="whiteSpace=wrap;html=1;aspect=fixed;fillColor=#008a00;fontColor=#ffffff;strokeColor=#005700;" vertex="1" parent="1">
          <mxGeometry x="750" y="620" width="40" height="40" as="geometry" />
        </mxCell>
        <mxCell id="kt42e46tLxHBv45678kQ-58" value="4" style="whiteSpace=wrap;html=1;aspect=fixed;fillColor=#008a00;fontColor=#ffffff;strokeColor=#005700;" vertex="1" parent="1">
          <mxGeometry x="790" y="620" width="40" height="40" as="geometry" />
        </mxCell>
        <mxCell id="kt42e46tLxHBv45678kQ-59" value="6" style="whiteSpace=wrap;html=1;aspect=fixed;fillColor=#008a00;fontColor=#ffffff;strokeColor=#005700;" vertex="1" parent="1">
          <mxGeometry x="830" y="620" width="40" height="40" as="geometry" />
        </mxCell>
        <mxCell id="kt42e46tLxHBv45678kQ-60" value="7" style="whiteSpace=wrap;html=1;aspect=fixed;fillColor=#008a00;fontColor=#ffffff;strokeColor=#005700;" vertex="1" parent="1">
          <mxGeometry x="870" y="620" width="40" height="40" as="geometry" />
        </mxCell>
        <mxCell id="kt42e46tLxHBv45678kQ-61" value="i=5&lt;br&gt;j=i-1=4&lt;br&gt;key=7" style="text;html=1;align=left;verticalAlign=middle;resizable=0;points=[];autosize=1;strokeColor=none;fillColor=none;fontStyle=1" vertex="1" parent="1">
          <mxGeometry x="670" y="570" width="50" height="50" as="geometry" />
        </mxCell>
        <mxCell id="kt42e46tLxHBv45678kQ-62" value="As arr[j]&amp;lt;key we do nothing. arr[j+1]=arr[5]=key, means&lt;br&gt;7 will remain in its place." style="text;html=1;align=left;verticalAlign=middle;resizable=0;points=[];autosize=1;strokeColor=none;fillColor=none;" vertex="1" parent="1">
          <mxGeometry x="670" y="680" width="310" height="30" as="geometry" />
        </mxCell>
      </root>
    </mxGraphModel>
  </diagram>
</mxfile>
